<?xml version="1.0" encoding="utf-8"?>
<!-- Generator: Adobe Illustrator 26.0.2, SVG Export Plug-In . SVG Version: 6.00 Build 0)  -->
<svg version="1.1" id="Layer_3" xmlns="http://www.w3.org/2000/svg" xmlns:xlink="http://www.w3.org/1999/xlink" x="0px" y="0px"
	 viewBox="0 0 64 64" style="enable-background:new 0 0 64 64;" xml:space="preserve">
<g>
	<rect x="11" y="53" style="fill:#A0A8B2;" width="42" height="5"/>
	<circle style="fill:#C66B60;" cx="11" cy="29" r="7"/>
	<circle style="fill:#E47C6F;" cx="11" cy="29" r="3"/>
	<circle style="fill:#E47C6F;" cx="18" cy="23" r="7"/>
	<circle style="fill:#E9968C;" cx="18" cy="23" r="3"/>
	<path style="fill:#F9D18F;" d="M58.499,38.9C58.808,38.333,59,37.692,59,37c0-1.867-1.284-3.422-3.014-3.863
		C55.988,33.091,56,33.047,56,33c0-2.209-1.791-4-4-4c-0.38,0-0.741,0.07-1.089,0.169C50.528,27.359,48.924,26,47,26
		c-0.38,0-0.741,0.07-1.089,0.169C45.528,24.359,43.924,23,42,23c-0.405,0-0.788,0.078-1.156,0.19C40.118,22.456,39.113,22,38,22
		c-0.986,0-1.878,0.371-2.575,0.963C34.727,21.792,33.462,21,32,21s-2.727,0.792-3.425,1.963C27.878,22.371,26.986,22,26,22
		c-1.113,0-2.118,0.456-2.844,1.19C22.788,23.078,22.405,23,22,23c-1.924,0-3.528,1.359-3.911,3.169C17.741,26.07,17.38,26,17,26
		c-1.924,0-3.528,1.359-3.911,3.169C12.741,29.07,12.38,29,12,29c-2.209,0-4,1.791-4,4c0,0.047,0.012,0.091,0.014,0.137
		C6.284,33.578,5,35.133,5,37c0,0.692,0.192,1.333,0.501,1.9C4.593,39.633,4,40.742,4,42h56C60,40.742,59.407,39.633,58.499,38.9z"
		/>
	<path style="fill:#FBE3BC;" d="M52,29c0.804,0,1.548,0.242,2.175,0.65L62,14h-5l-6.065,15.164C51.276,29.068,51.628,29,52,29z"/>
	<path style="fill:#FBE3BC;" d="M49.092,26.601L52,14h-5l-1.089,12.169C46.259,26.07,46.62,26,47,26
		C47.769,26,48.482,26.225,49.092,26.601z"/>
	<path style="fill:#FBE3BC;" d="M51.071,40.357c0.221-0.405,0.358-0.863,0.358-1.357c0-1.333-0.917-2.444-2.153-2.759
		c0.001-0.033,0.01-0.064,0.01-0.098c0-1.578-1.279-2.857-2.857-2.857c-0.272,0-0.529,0.05-0.778,0.121
		c-0.273-1.293-1.419-2.264-2.794-2.264c-0.272,0-0.529,0.05-0.778,0.121C41.806,29.971,40.66,29,39.286,29
		c-0.289,0-0.563,0.056-0.826,0.136c-0.518-0.524-1.236-0.85-2.031-0.85c-0.705,0-1.341,0.265-1.839,0.688
		c-0.498-0.836-1.402-1.402-2.446-1.402s-1.948,0.566-2.446,1.402c-0.498-0.423-1.135-0.688-1.839-0.688
		c-0.795,0-1.513,0.326-2.031,0.85C25.563,29.056,25.289,29,25,29c-1.374,0-2.52,0.971-2.794,2.264
		c-0.249-0.071-0.506-0.121-0.778-0.121c-1.374,0-2.52,0.971-2.794,2.264c-0.249-0.071-0.506-0.121-0.778-0.121
		c-1.578,0-2.857,1.279-2.857,2.857c0,0.034,0.009,0.065,0.01,0.098c-1.235,0.315-2.153,1.426-2.153,2.759
		c0,0.494,0.137,0.952,0.358,1.357c-0.649,0.524-1.072,1.316-1.072,2.214h40C52.143,41.673,51.72,40.881,51.071,40.357z"/>
	<circle style="fill:#78B761;" cx="40" cy="31" r="2"/>
	<circle style="fill:#78B761;" cx="22" cy="36" r="2"/>
	<path style="fill:#78B761;" d="M29.5,15.5L29.5,15.5c-0.96-0.96-1.5-2.263-1.5-3.621V11h0.879c1.358,0,2.661,0.54,3.621,1.5v0
		c0.96,0.96,1.5,2.263,1.5,3.621V17h-0.879C31.763,17,30.46,16.46,29.5,15.5z"/>
	<path style="fill:#78B761;" d="M39.5,7.5L39.5,7.5C38.54,8.46,38,9.763,38,11.121V12h0.879c1.358,0,2.661-0.54,3.621-1.5v0
		C43.46,9.54,44,8.237,44,6.879V6h-0.879C41.763,6,40.46,6.54,39.5,7.5z"/>
	<path style="fill:#C66B60;" d="M4,46c0,4.418,3.582,8,8,8h40c4.418,0,8-3.582,8-8H4z"/>
	<path style="fill:#E47C6F;" d="M60,46H4.198c1.742,4.5,15.089,8,31.302,8H52C56.418,54,60,50.418,60,46z"/>
	<path style="fill:#B3B9C1;" d="M53,54H11c0,2.209,13.655,4,30.5,4H53V54z"/>
	<rect x="2" y="42" style="fill:#A0A8B2;" width="60" height="4"/>
	<path style="fill:#B3B9C1;" d="M62,42H2c0,2.209,13.655,4,30.5,4H62V42z"/>
	<g>
		<path d="M62,41h-1.11c-0.18-0.866-0.584-1.672-1.188-2.336C59.9,38.123,60,37.566,60,37c0-2.019-1.215-3.809-3.034-4.584
			c-0.139-1.189-0.712-2.246-1.537-3.036l7.466-14.932c0.155-0.31,0.139-0.678-0.044-0.973C62.668,13.18,62.347,13,62,13h-5
			c-0.409,0-0.776,0.249-0.929,0.628l-5.259,13.148c-0.183-0.217-0.379-0.422-0.594-0.605l2.757-11.946
			c0.068-0.297-0.002-0.609-0.192-0.848C52.593,13.139,52.305,13,52,13h-5c-0.518,0-0.95,0.395-0.996,0.911l-0.828,9.249
			C44.302,22.437,43.192,22,42,22c-0.286,0-0.579,0.03-0.885,0.091c-1.513-1.211-3.728-1.432-5.463-0.489
			C34.717,20.584,33.411,20,32,20s-2.717,0.584-3.652,1.602c-0.803-0.436-1.708-0.612-2.599-0.567C24.867,17.528,21.717,15,18,15
			c-3.735,0-6.872,2.577-7.748,6.044C6.209,21.429,3,24.843,3,29c0,1.894,0.685,3.726,1.897,5.162C4.331,34.975,4,35.955,4,37
			c0,0.566,0.1,1.123,0.298,1.664C3.694,39.328,3.29,40.134,3.11,41H2c-0.553,0-1,0.447-1,1v4c0,0.553,0.447,1,1,1h1.059
			c0.425,3.825,3.256,6.928,6.941,7.768V58c0,0.553,0.447,1,1,1h42c0.553,0,1-0.447,1-1v-3.232c3.685-0.841,6.516-3.943,6.941-7.768
			H62c0.553,0,1-0.447,1-1v-4C63,41.447,62.553,41,62,41z M57.677,15h2.705l-6.654,13.308c-0.4-0.148-0.82-0.247-1.26-0.284
			L57.677,15z M50.743,15l-2.354,10.197c-0.438-0.127-0.897-0.189-1.371-0.184L47.914,15H50.743z M18,17
			c2.789,0,5.139,1.901,5.799,4.531c-0.322,0.156-0.633,0.334-0.914,0.56C22.579,22.03,22.286,22,22,22
			c-0.047,0-0.092,0.009-0.139,0.01C21.418,20.285,19.863,19,18,19c-2.206,0-4,1.794-4,4c0,0.939,0.339,1.792,0.882,2.475
			c-0.612,0.291-1.164,0.697-1.613,1.205C12.456,25.634,12,24.344,12,23C12,19.691,14.691,17,18,17z M17.465,24.918
			C16.623,24.682,16,23.916,16,23c0-1.103,0.897-2,2-2c0.901,0,1.656,0.604,1.904,1.468C18.836,22.966,17.965,23.833,17.465,24.918z
			 M10.005,23.09c0.02,1.811,0.659,3.542,1.783,4.933c-2.456,0.074-4.471,1.98-4.753,4.393c-0.24,0.102-0.468,0.225-0.686,0.361
			C5.488,31.714,5,30.38,5,29C5,26.031,7.169,23.566,10.005,23.09z M6.129,39.679c0.376-0.304,0.481-0.832,0.25-1.257
			C6.128,37.96,6,37.481,6,37c0-1.364,0.93-2.555,2.261-2.895c0.458-0.117,0.772-0.539,0.752-1.012
			c-0.002-0.048-0.007-0.096-0.012-0.096c0,0-0.001,0-0.001,0.002c0-1.654,1.346-3,3-3c0.242,0,0.501,0.042,0.815,0.131
			c0.268,0.075,0.553,0.038,0.79-0.105s0.404-0.378,0.462-0.649C14.358,27.999,15.592,27,17,27c0.242,0,0.501,0.042,0.815,0.131
			c0.268,0.075,0.553,0.038,0.79-0.105s0.404-0.378,0.462-0.649C19.358,24.999,20.592,24,22,24c0.261,0,0.536,0.047,0.865,0.147
			c0.356,0.107,0.741,0.01,1.002-0.254C24.437,23.317,25.194,23,26,23c0.888,0,1.538,0.394,1.928,0.725
			c0.226,0.191,0.522,0.274,0.812,0.224c0.29-0.048,0.544-0.222,0.694-0.474C29.985,22.551,30.944,22,32,22s2.015,0.551,2.566,1.475
			c0.15,0.252,0.404,0.426,0.694,0.474c0.29,0.05,0.586-0.033,0.812-0.224C36.462,23.394,37.112,23,38,23
			c0.806,0,1.563,0.317,2.133,0.893c0.26,0.264,0.645,0.362,1.002,0.254C41.464,24.047,41.739,24,42,24
			c1.408,0,2.642,0.999,2.933,2.376c0.058,0.271,0.225,0.506,0.462,0.649s0.522,0.181,0.79,0.105C46.499,27.042,46.758,27,47,27
			c1.408,0,2.642,0.999,2.933,2.376c0.058,0.271,0.225,0.506,0.462,0.649s0.524,0.181,0.79,0.105C51.499,30.042,51.758,30,52,30
			c1.654,0,3,1.346,3.003,2.935c-0.005,0.032-0.015,0.126-0.016,0.159c-0.021,0.473,0.294,0.895,0.752,1.012
			C57.07,34.445,58,35.636,58,37c0,0.481-0.128,0.96-0.379,1.422c-0.231,0.425-0.126,0.953,0.25,1.257
			c0.44,0.355,0.747,0.816,0.933,1.321H5.196C5.382,40.495,5.689,40.033,6.129,39.679z M5.08,47H13v0.5c0,0.827-0.673,1.5-1.5,1.5
			c-1.687,0-3.098,1.2-3.427,2.79C6.482,50.708,5.366,48.987,5.08,47z M48,52.5V53h-8v-0.5c0-0.827,0.673-1.5,1.5-1.5
			c1.93,0,3.5-1.57,3.5-3.5V47h8v0.5c0,0.827-0.673,1.5-1.5,1.5C49.57,49,48,50.57,48,52.5z M43,47.5c0,0.827-0.673,1.5-1.5,1.5
			c-1.93,0-3.5,1.57-3.5,3.5V53h-8v-0.5c0-0.827,0.673-1.5,1.5-1.5c1.93,0,3.5-1.57,3.5-3.5V47h8V47.5z M33,47.5
			c0,0.827-0.673,1.5-1.5,1.5c-1.93,0-3.5,1.57-3.5,3.5V53h-8v-0.5c0-0.827,0.673-1.5,1.5-1.5c1.93,0,3.5-1.57,3.5-3.5V47h8V47.5z
			 M23,47.5c0,0.827-0.673,1.5-1.5,1.5c-1.93,0-3.5,1.57-3.5,3.5V53h-6c-0.695,0-1.366-0.105-2-0.295V52.5
			c0-0.827,0.673-1.5,1.5-1.5c1.93,0,3.5-1.57,3.5-3.5V47h8V47.5z M52,57H12v-2h40V57z M52,53h-2v-0.5c0-0.827,0.673-1.5,1.5-1.5
			c1.93,0,3.5-1.57,3.5-3.5V47h3.92C58.432,50.386,55.519,53,52,53z M61,45H3v-2h58V45z"/>
		<rect x="15" y="31" width="2" height="2"/>
		<rect x="29" y="26" width="2" height="2"/>
		<rect x="46" y="36" width="2" height="2"/>
		<rect x="30" y="36" width="2" height="2"/>
		<path d="M40,28c-1.654,0-3,1.346-3,3s1.346,3,3,3s3-1.346,3-3S41.654,28,40,28z M40,32c-0.552,0-1-0.449-1-1s0.448-1,1-1
			s1,0.449,1,1S40.552,32,40,32z"/>
		<path d="M22,33c-1.654,0-3,1.346-3,3s1.346,3,3,3s3-1.346,3-3S23.654,33,22,33z M22,37c-0.552,0-1-0.448-1-1s0.448-1,1-1
			s1,0.448,1,1S22.552,37,22,37z"/>
		<path d="M33.121,18H34c0.553,0,1-0.448,1-1v-0.879c0-1.634-0.637-3.171-1.793-4.328C32.052,10.637,30.515,10,28.879,10H28
			c-0.553,0-1,0.448-1,1v0.879c0,1.634,0.637,3.171,1.793,4.328C29.948,17.363,31.485,18,33.121,18z M31.793,13.207
			c0.738,0.739,1.173,1.75,1.205,2.791c-1.055-0.03-2.042-0.456-2.791-1.205c-0.738-0.739-1.173-1.75-1.205-2.791
			C30.057,12.032,31.044,12.458,31.793,13.207z"/>
		<path d="M38,13h0.879c1.636,0,3.173-0.637,4.328-1.793C44.363,10.05,45,8.513,45,6.879V6c0-0.552-0.447-1-1-1h-0.879
			c-1.636,0-3.173,0.637-4.328,1.793C37.637,7.95,37,9.487,37,11.121V12C37,12.552,37.447,13,38,13z M40.207,8.207
			c0.749-0.75,1.736-1.175,2.791-1.205c-0.032,1.041-0.467,2.052-1.205,2.791c-0.749,0.75-1.736,1.175-2.791,1.205
			C39.034,9.957,39.469,8.946,40.207,8.207z"/>
	</g>
</g>
</svg>
